<?xml version="1.0" encoding="utf-8"?>
<svg version="1.0" xmlns="http://www.w3.org/2000/svg" width="830.000000pt" height="300.000000pt" viewBox="0 0 830.000000 300.000000" preserveAspectRatio="xMidYMid meet">
  <g transform="matrix(0.114798, 0, 0, -0.224015, -45.358147, 481.469215)" fill="#008000" stroke="none" style="">
    <path d="M1622 2140 c-158 -17 -308 -58 -426 -117 -80 -40 -170 -121 -187 -167 -11 -32 -13 -32 -108 -43 -223 -27 -427 -128 -484 -240 -62 -121 -1 -247 161 -331 161 -84 345 -116 645 -110 l169 3 3 46 c7 122 166 296 398 438 37 22 67 39 67 37 0 -2 -65 -68 -144 -147 -109 -110 -149 -157 -168 -199 -28 -60 -41 -117 -30 -123 11 -7 130 20 217 49 191 63 324 156 383 269 23 43 27 62 27 140 0 73 -5 100 -24 144 l-24 53 -55 -6 c-227 -27 -593 -157 -710 -253 -91 -75 -107 -171 -47 -289 19 -38 35 -73 35 -78 0 -14 -386 1 -464 18 -138 31 -259 107 -292 183 -31 71 -6 146 69 207 81 66 208 104 381 115 l109 6 14 47 c28 97 143 178 328 233 75 23 116 28 248 32 174 6 266 -4 378 -42 137 -47 245 -122 287 -199 9 -17 19 -58 22 -91 l5 -60 145 -6 c160 -7 214 -20 300 -71 75 -45 103 -89 97 -151 -6 -64 -46 -113 -128 -154 -122 -62 -147 -65 -564 -72 -380 -6 -380 -6 -430 -31 -96 -49 -89 -50 327 -50 211 0 424 5 473 10 164 19 305 69 395 141 45 37 90 118 90 163 -1 132 -191 263 -420 290 -142 17 -140 16 -140 38 0 104 -179 249 -390 318 -140 45 -375 67 -538 50z"/>
    <path d="M3850 2010 c-215 -27 -375 -116 -408 -226 -25 -86 -9 -179 41 -232 102 -110 312 -169 562 -159 174 8 276 35 373 100 36 24 82 78 82 97 0 3 -54 5 -119 4 -114 -1 -121 -2 -151 -28 -52 -43 -98 -58 -201 -63 -225 -12 -359 74 -347 223 6 69 40 114 115 151 55 26 66 28 188 28 120 0 134 -2 188 -27 31 -15 60 -34 63 -43 5 -12 28 -15 135 -15 l130 0 -15 29 c-50 95 -220 158 -446 166 -69 2 -154 0 -190 -5z"/>
    <path d="M6985 2013 c-109 -17 -222 -61 -258 -101 -10 -11 -21 -38 -23 -59 -11 -90 70 -143 265 -174 64 -10 172 -27 240 -38 137 -21 169 -38 157 -84 -11 -46 -65 -62 -206 -62 -140 0 -206 17 -234 61 -16 23 -20 24 -136 24 -66 0 -120 -4 -120 -9 0 -18 47 -77 79 -98 84 -57 268 -88 466 -80 264 11 405 74 405 182 0 50 -25 87 -79 114 -54 28 -95 37 -326 71 -119 18 -220 38 -233 46 -18 12 -22 23 -20 47 5 51 49 67 180 67 116 0 180 -17 199 -51 9 -17 22 -19 129 -19 134 0 140 4 95 59 -31 35 -108 74 -185 91 -56 12 -340 22 -395 13z"/>
    <path d="M4700 1705 l0 -305 400 0 400 0 0 50 0 50 -277 2 -278 3 -3 73 -3 72 256 0 255 0 0 53 0 52 -252 0 -253 0 -3 73 -3 72 276 0 275 0 0 55 0 55 -395 0 -395 0 0 -305z"/>
    <path d="M5710 1705 l0 -305 400 0 400 0 0 50 0 50 -277 2 -278 3 1 70 0 70 252 3 252 2 0 55 0 55 -248 0 c-137 0 -251 2 -253 4 -2 2 -2 34 -1 70 l4 66 271 2 272 3 3 53 3 52 -400 0 -401 0 0 -305z"/>
    <path d="M3586 1269 c-86 -13 -122 -74 -72 -124 28 -28 78 -39 146 -33 55 6 119 39 86 46 -10 2 -36 -4 -57 -13 -42 -19 -108 -16 -134 5 -23 19 -19 67 8 84 39 24 75 27 114 9 21 -9 49 -18 62 -19 24 -3 24 -3 5 16 -25 25 -96 38 -158 29z"/>
    <path d="M4237 1273 c-4 -3 -7 -42 -7 -85 0 -70 2 -78 19 -78 11 0 21 5 23 11 3 9 9 9 25 0 63 -33 163 7 150 61 -9 35 -55 52 -117 45 l-50 -6 0 29 c0 22 -5 30 -18 30 -10 0 -22 -3 -25 -7z m157 -85 c17 -28 -5 -52 -48 -56 -56 -5 -87 33 -54 66 18 18 89 11 102 -10z"/>
    <path d="M5792 1273 c-19 -8 -4 -23 24 -23 16 0 24 5 22 13 -5 13 -26 18 -46 10z"/>
    <path d="M6365 1270 c-8 -13 20 -24 41 -16 20 8 9 26 -16 26 -10 0 -22 -5 -25 -10z"/>
    <path d="M5140 1190 l0 -80 100 0 c60 0 100 4 100 10 0 6 -32 10 -75 10 -73 0 -75 1 -75 25 0 24 2 25 70 25 40 0 70 4 70 10 0 6 -30 10 -70 10 -68 0 -70 1 -70 25 0 24 2 25 75 25 43 0 75 4 75 10 0 6 -40 10 -100 10 l-100 0 0 -80z"/>
    <path d="M3834 1214 c-18 -15 -18 -15 11 -9 17 3 41 8 55 11 14 3 34 -1 45 -10 24 -17 19 -20 -70 -32 -47 -7 -61 -13 -63 -28 -6 -29 16 -36 106 -34 l82 2 0 48 c0 37 -4 50 -19 58 -31 16 -124 12 -147 -6z m119 -59 c1 -6 -11 -16 -27 -24 -22 -10 -34 -11 -53 -2 -31 14 -25 22 24 31 45 9 54 8 56 -5z"/>
    <path d="M4060 1169 c0 -56 1 -59 25 -59 22 0 25 4 25 38 0 45 14 62 52 62 15 0 28 4 28 9 0 5 -29 9 -65 9 l-65 0 0 -59z"/>
    <path d="M4533 1220 c-27 -11 -45 -43 -37 -65 25 -63 214 -57 214 8 0 28 -9 41 -37 56 -25 13 -108 14 -140 1z m127 -29 c13 -25 13 -27 -6 -45 -18 -19 -85 -21 -102 -4 -33 33 -4 68 55 68 32 0 45 -5 53 -19z"/>
    <path d="M4760 1168 c0 -55 1 -58 25 -58 22 0 25 4 25 38 0 48 14 62 61 62 41 0 49 -11 49 -66 0 -27 4 -34 20 -34 17 0 20 7 20 50 0 63 -13 70 -119 68 l-81 -2 0 -58z"/>
    <path d="M5400 1168 c0 -55 1 -58 24 -58 22 0 25 5 28 47 3 41 6 48 28 54 42 10 60 -6 60 -56 0 -41 2 -45 24 -45 23 0 25 5 28 48 l3 47 40 0 40 0 3 -47 c3 -43 5 -48 28 -48 22 0 24 4 24 43 0 71 -11 76 -182 74 l-148 -1 0 -58z"/>
    <path d="M5790 1170 c0 -53 2 -60 20 -60 18 0 20 7 20 60 0 53 -2 60 -20 60 -18 0 -20 -7 -20 -60z"/>
    <path d="M5916 1217 c-31 -23 -13 -45 41 -52 61 -8 73 -12 73 -24 0 -14 -40 -21 -67 -10 -13 5 -34 9 -46 9 -22 -1 -22 -1 -3 -15 25 -19 126 -20 151 -1 30 22 12 44 -42 51 -61 8 -73 12 -73 24 0 17 39 23 75 10 33 -12 57 -7 41 8 -14 15 -130 15 -150 0z"/>
    <path d="M6148 1219 c-42 -24 4 -59 78 -59 18 0 36 -5 39 -10 10 -16 -42 -31 -71 -20 -14 6 -35 10 -47 10 -22 -1 -22 -1 -3 -15 23 -17 118 -20 147 -5 45 24 5 60 -66 60 -19 0 -37 5 -41 11 -10 16 17 30 46 24 14 -4 39 -8 55 -11 29 -5 29 -4 11 10 -23 18 -121 21 -148 5z"/>
    <path d="M6370 1170 c0 -53 2 -60 20 -60 18 0 20 7 20 60 0 53 -2 60 -20 60 -18 0 -20 -7 -20 -60z"/>
    <path d="M6498 1214 c-41 -22 -39 -68 4 -90 46 -24 145 -15 169 15 22 27 13 60 -22 78 -33 17 -118 15 -151 -3z m130 -16 c30 -30 -2 -68 -59 -68 -32 0 -41 5 -51 25 -8 19 -8 28 2 40 15 18 91 20 108 3z"/>
    <path d="M6733 1169 c0 -55 2 -59 24 -59 20 0 23 5 23 38 0 48 14 62 61 62 41 0 49 -11 49 -66 0 -27 4 -34 20 -34 17 0 20 7 20 50 0 63 -12 70 -118 68 l-79 -1 0 -58z"/>
    <path d="M3788 1009 c-10 -5 -18 -17 -18 -24 0 -8 -7 -15 -15 -15 -8 0 -15 -4 -15 -10 0 -5 6 -9 13 -7 8 1 13 -15 15 -50 3 -49 5 -53 28 -53 22 0 24 4 24 50 0 43 3 50 19 50 11 0 23 5 26 10 4 6 -5 10 -19 10 -16 0 -26 6 -26 15 0 9 9 15 25 15 14 0 25 5 25 10 0 13 -60 12 -82 -1z"/>
    <path d="M3954 1012 c-6 -4 -13 -15 -17 -24 -3 -10 -13 -18 -22 -18 -8 0 -15 -4 -15 -10 0 -5 9 -10 20 -10 17 0 20 -7 20 -50 0 -43 3 -50 19 -50 17 0 20 8 23 53 2 42 6 51 20 49 9 -1 19 2 23 8 4 6 -5 10 -20 10 -32 0 -29 23 3 28 12 2 22 8 22 13 0 11 -60 12 -76 1z"/>
    <path d="M4072 1008 c5 -15 48 -18 48 -3 0 6 -11 11 -26 13 -18 3 -25 0 -22 -10z"/>
    <path d="M4425 1011 c-7 -12 31 -25 45 -16 5 3 10 10 10 16 0 12 -47 12 -55 0z"/>
    <path d="M5720 1011 c-47 -9 -60 -18 -60 -41 0 -25 9 -29 82 -41 72 -12 94 -25 77 -45 -15 -18 -72 -18 -107 0 -16 8 -35 10 -47 6 -18 -7 -16 -10 17 -24 63 -27 178 -16 192 19 9 26 -19 45 -84 57 -79 14 -100 26 -74 45 24 18 65 16 92 -3 12 -8 32 -14 45 -12 l22 3 -25 17 c-31 21 -84 28 -130 19z"/>
    <path d="M3500 930 l0 -80 100 0 c60 0 100 4 100 10 0 6 -32 10 -75 10 -73 0 -75 1 -75 25 0 24 2 25 64 25 36 0 68 5 71 10 4 6 -20 10 -64 10 -69 0 -71 1 -71 25 0 24 2 25 69 25 39 0 73 5 76 10 4 6 -30 10 -94 10 l-101 0 0 -80z"/>
    <path d="M6416 985 c-3 -8 -12 -15 -21 -15 -8 0 -15 -4 -15 -10 0 -5 9 -10 20 -10 17 0 20 -7 20 -44 0 -37 4 -45 23 -50 33 -9 67 -7 67 3 0 5 -10 11 -22 13 -19 2 -24 10 -26 41 -3 34 -1 37 22 37 14 0 26 5 26 10 0 6 -11 10 -25 10 -16 0 -25 6 -25 15 0 8 -9 15 -19 15 -10 0 -21 -7 -25 -15z"/>
    <path d="M4078 963 c-2 -5 -3 -30 -3 -58 0 -44 3 -50 23 -53 21 -3 22 0 22 57 0 54 -2 61 -19 61 -11 0 -21 -3 -23 -7z"/>
    <path d="M4194 947 c-20 -18 -25 -28 -19 -46 14 -46 117 -66 178 -34 42 21 18 30 -35 12 -52 -17 -93 -3 -93 31 0 40 43 55 95 34 45 -18 66 -11 36 12 -12 8 -43 14 -77 14 -46 0 -63 -5 -85 -23z"/>
    <path d="M4430 910 c0 -57 1 -60 25 -60 24 0 25 3 25 60 0 57 -1 60 -25 60 -24 0 -25 -3 -25 -60z"/>
    <path d="M4556 949 c-36 -28 -31 -59 14 -82 39 -20 132 -19 153 2 9 10 -1 11 -50 5 -45 -5 -67 -3 -78 6 -28 23 -15 29 73 32 l87 3 -27 28 c-23 23 -35 27 -86 27 -45 0 -66 -5 -86 -21z m119 -1 c41 -18 29 -28 -35 -28 -60 0 -75 10 -42 29 23 14 46 13 77 -1z"/>
    <path d="M4800 908 c0 -51 2 -58 20 -58 17 0 20 7 20 45 0 40 3 47 26 56 28 10 64 3 76 -15 4 -6 8 -28 8 -48 0 -31 4 -38 20 -38 17 0 20 7 20 49 0 29 -6 53 -14 60 -8 7 -45 10 -95 9 l-81 -2 0 -58z"/>
    <path d="M5064 947 c-20 -18 -25 -29 -20 -45 15 -45 111 -68 171 -40 34 15 32 32 -2 24 -65 -16 -82 -17 -102 -6 -31 16 -24 51 14 69 26 12 32 12 58 -2 32 -19 57 -22 57 -7 0 18 -38 30 -94 30 -43 0 -61 -5 -82 -23z"/>
    <path d="M5290 964 c0 -4 16 -28 35 -54 49 -66 46 -85 -12 -83 -7 1 -13 -3 -13 -8 0 -12 57 -11 80 1 16 8 110 133 110 145 0 3 -10 5 -23 5 -16 0 -30 -13 -51 -47 l-28 -47 -26 47 c-20 34 -33 47 -49 47 -13 0 -23 -3 -23 -6z"/>
    <path d="M5935 943 c10 -16 29 -43 42 -61 28 -38 23 -52 -18 -52 -16 0 -29 -4 -29 -10 0 -14 73 -12 91 3 9 6 37 42 63 80 46 66 47 67 22 67 -20 0 -33 -11 -55 -46 l-29 -47 -27 47 c-21 35 -33 46 -52 46 -25 0 -25 0 -8 -27z"/>
    <path d="M6182 958 c-30 -30 -12 -43 68 -54 35 -5 50 -11 50 -22 0 -12 -11 -14 -67 -8 -53 5 -65 4 -56 -5 32 -32 173 -17 173 17 0 17 -40 34 -79 34 -15 0 -36 6 -46 14 -18 13 -18 14 5 21 13 4 40 2 61 -5 40 -14 65 -6 39 10 -22 14 -134 12 -148 -2z"/>
    <path d="M6576 949 c-60 -47 -4 -103 97 -96 31 2 63 9 70 16 10 10 0 11 -50 5 -45 -5 -67 -3 -78 6 -28 23 -15 29 73 32 l87 3 -27 28 c-23 23 -35 27 -86 27 -45 0 -66 -5 -86 -21z m115 1 c34 -19 20 -30 -36 -30 -56 0 -69 11 -37 29 22 13 48 14 73 1z"/>
    <path d="M6810 909 c0 -56 1 -59 25 -59 23 0 25 4 25 45 0 40 3 47 26 56 47 17 64 4 64 -52 0 -46 2 -49 25 -49 23 0 25 4 25 45 0 38 4 47 24 56 40 19 66 -3 66 -56 0 -41 2 -45 25 -45 23 0 25 4 25 44 0 71 -7 74 -180 74 l-150 -1 0 -58z"/>
  </g>
</svg>